<?xml version="1.0" encoding="utf-8"?>
<!-- Generator: Adobe Illustrator 24.0.2, SVG Export Plug-In . SVG Version: 6.00 Build 0)  -->
<svg version="1.1" id="Layer_1" xmlns="http://www.w3.org/2000/svg" xmlns:xlink="http://www.w3.org/1999/xlink" x="0px" y="0px"
	 viewBox="0 0 612 792" style="enable-background:new 0 0 612 792;" xml:space="preserve">
<style type="text/css">
	.st0{fill:#ADADAD;stroke:#000000;stroke-width:0.4;stroke-miterlimit:10;}
	.st1{fill:#FFFFFF;}
	.st2{fill:#FFFFFF;stroke:#000000;stroke-width:0.25;stroke-miterlimit:10;}
</style>
<path class="st0" d="M422.27,381.74c-0.21,22.24-1.97,44.46-2.7,66.69c-0.43,13.19-0.19,26.4-0.25,39.6
	c-0.01,1.25,0.32,2.6-0.08,3.71c-0.31,0.86-1.53,2.05-2.29,2.02c-13.28-0.59-26.55-1.36-39.82-2.06c-9.8-0.51-19.6-0.96-29.4-1.46
	c-23.18-1.19-46.36-2.45-69.54-3.58c-8.75-0.43-17.51-0.63-26.27-0.86c-25.22-0.66-50.44-1.18-75.66-1.96
	c-11.28-0.35-22.54-1.24-33.82-1.78c-2.68-0.13-3.64-1.2-3.66-3.84c-0.07-8.32-0.39-16.64-0.57-24.96
	c-0.48-22.99-0.87-45.97-1.42-68.96c-0.56-23.29-1.34-46.58-1.88-69.87c-0.49-21.01-1.56-42.04-0.92-63.02
	c0.46-15.1,3.15-30.15,5.19-45.17c1.1-8.08,1.41-8.29,9.52-8.77c10.21-0.6,20.46-1,30.69-1.03c46.25-0.1,92.51-0.05,138.76-0.05
	c0-0.21,68.86-0.63,103.29-0.62c2,0,4.01,0.15,6.01,0.25c2.26,0.11-2.45,22.95-4.64,32.8c-2.69,12.04-3.74,24.21-3.03,36.56
	c0.69,12.04,1.16,24.1,1.39,36.16L422.27,381.74z"/>
<path class="st1" d="M431.6,434.02l-12.3,0L431.6,434.02z"/>
<path class="st2" d="M419.3,434.02"/>
</svg>
